<?xml version="1.0" encoding="UTF-8"?>
<svg width="714px" height="73px" viewBox="0 0 714 73" version="1.1" xmlns="http://www.w3.org/2000/svg" xmlns:xlink="http://www.w3.org/1999/xlink">
    <!-- Generator: Sketch 51.2 (57519) - http://www.bohemiancoding.com/sketch -->
    <title>logo</title>
    <desc>Created with Sketch.</desc>
    <defs></defs>
    <g id="Page-1" stroke="none" stroke-width="1" fill="none" fill-rule="evenodd">
        <g id="Desktop-HD" transform="translate(-363.000000, -466.000000)">
            <g id="logo" transform="translate(363.000000, 466.000000)">
                <polygon id="Mask" fill="#4A452D" points="611.573865 0.087890625 620.333815 0.087890625 620.333815 11.1617714 628.061803 11.1617714 628.061803 0.087890625 642.646084 0.087890625 642.646084 5.62483103 647.012377 5.62483103 647.012377 0.087890625 714 0.087890625 714 72.0878906 365.796875 72.0878906 365.796875 70.0771484 368.010254 70.0771484 368.010254 68.0043945 373.333325 68.0043945 373.333325 65.4926758 376.008789 65.4926758 376.008789 62.9018555 382.893799 62.9018555 382.893799 60.0336914 389.931641 60.0336914 389.931641 58.0869141 393.168457 58.0869141 393.168457 55.8520508 407.958496 55.8520508 407.958496 54.0356445 419.949463 54.0356445 419.949463 50.6518555 423.401855 50.6518555 423.401855 43.6953125 430.519263 43.6953125 430.519263 36.0878906 438.042031 36.0878906 438.042031 46.5724828 462.275548 46.5724828 462.275548 41.438948 468.16633 41.438948 468.16633 46.5724828 473.9375 46.5724828 473.9375 36.0878906 479.969727 36.0878906 479.969727 32.9599609 485.373535 32.9599609 485.373535 31.4897461 510.958984 31.4897461 510.958984 21.958252 536.974854 21.958252 536.974854 18.0202637 524.582206 18.0202637 524.582206 11.1617714 547.973345 11.1617714 547.973345 15.5444336 558.717085 15.5444336 558.717085 11.1617714 566.280897 11.1617714 566.280897 5.62483103 574.001067 5.62483103 574.001067 20.7485882 580.689275 20.7485882 580.689275 18.0202637 599.89209 18.0202637 599.89209 16.8308105 601.203613 16.8308105 601.203613 15.1193848 604.416748 15.1193848 604.416748 13.0126953 608.745605 13.0126953 608.745605 11.9150391 611.573865 11.9150391"></polygon>
                <rect id="Noise" fill="#E3DEC6" x="502" y="8" width="35" height="14"></rect>
                <rect id="Noise" fill="#E3DEC6" fill-rule="nonzero" x="446" y="24" width="28" height="23"></rect>
                <path d="M12.0878906,6.01171875 L12.0878906,24.0117188 L30.0878906,24.0117188 L30.0878906,6.01171875 L12.0878906,6.01171875 Z M30.0878906,0 L30.0878906,6.01171875 L36.0996094,6.01171875 L36.0996094,24.0117188 L30.0878906,24.0117188 L30.0878906,29.9882812 L35.9941406,29.8125 L36.0996094,54 L30.0878906,54 L30.0878906,29.9882812 L12.0878906,29.9882812 L12.0878906,54 L0.099609375,54 L0.099609375,0 L30.0878906,0 Z M60.0761719,24.0117188 L60.0761719,29.9882812 L78.0761719,29.9882812 L78.0761719,24.0117188 L60.0761719,24.0117188 Z M54.0644531,18 L78.0761719,18 L78.0761719,24.0117188 L84.0878906,24.0117188 L84.0878906,36 L60.0761719,36 L60.0761719,47.9882812 L78.0761719,47.9882812 L78.0761719,42.0117188 L84.0878906,42.0117188 L84.0878906,47.9882812 L78.0761719,47.9882812 L78.0761719,54 L54.0644531,54 L54.0644531,47.9882812 L48.0878906,47.9882812 L48.0878906,24.0117188 L54.0644531,24.0117188 L54.0644531,18 Z M126.064453,0 L126.064453,6.01171875 L120.052734,6.01171875 L120.052734,18 L132.076172,18 L132.076172,24.0117188 L120.052734,24.0117188 L120.052734,54 L108.064453,54 L108.064453,24.0117188 L96.0761719,24.0117188 L96.0761719,18 L108.064453,18 L108.064453,6.01171875 L114.076172,6.01171875 L114.076172,0 L126.064453,0 Z M156.052734,24.0117188 L156.052734,47.9882812 L174.052734,47.9882812 L174.052734,24.0117188 L156.052734,24.0117188 Z M150.041016,18 L174.052734,18 L174.052734,24.0117188 L180.064453,24.0117188 L180.064453,47.9882812 L174.052734,47.9882812 L174.052734,54 L150.041016,54 L150.041016,47.9882812 L144.064453,47.9882812 L144.064453,24.0117188 L150.041016,24.0117188 L150.041016,18 Z M192.052734,18 L204.041016,18 L204.041016,24.0117188 L210.052734,24.0117188 L210.052734,18 L222.041016,18 L222.041016,24.0117188 L210.052734,24.0117188 L210.052734,29.9882812 L204.041016,29.9882812 L204.041016,54 L192.052734,54 L192.052734,18 Z M246.017578,24.0117188 L246.017578,47.9882812 L264.017578,47.9882812 L264.017578,24.0117188 L246.017578,24.0117188 Z M240.041016,60.0117188 L246.017578,60.0117188 L246.017578,65.9882812 L264.017578,65.9882812 L264.017578,54 L246.017578,54 L246.017578,47.9882812 L240.041016,47.6367188 L240.041016,24.0117188 L246.017578,24.0117188 L246.017578,18 L276.041016,18 L276.041016,65.9882812 L270.029297,65.9882812 L270.029297,72 L246.017578,72 L246.017578,65.9882812 L240.041016,65.9882812 L240.041016,60.0117188 Z M300.017578,18 L312.005859,18 L312.005859,54 L300.017578,54 L300.017578,18 Z M312.005859,0 L312.005859,11.9882812 L300.017578,11.9882812 L300.017578,0 L312.005859,0 Z M336.017578,18 L366.005859,18 L366.005859,24.0117188 L372.017578,24.0117188 L372.017578,54 L366.005859,54 L366.005859,24.0117188 L348.005859,24.0117188 L348.005859,54 L336.017578,54 L336.017578,18 Z M389.982422,24.0117188 L407.982422,24.0117188 L407.982422,47.9882812 L389.982422,47.9882812 L389.982422,24.0117188 Z M611.573865,0.087890625 L620.333815,0.087890625 L620.333815,11.1617714 L628.061803,11.1617714 L628.061803,0.087890625 L642.646084,0.087890625 L642.646084,5.62483103 L647.012377,5.62483103 L647.012377,0.087890625 L714,0.087890625 L714,72.0878906 L365.796875,72.0878906 L365.796875,70.0771484 L368.010254,70.0771484 L368.010254,68.0043945 L373.333325,68.0043945 L373.333325,65.4926758 L376.008789,65.4926758 L376.008789,62.9018555 L382.893799,62.9018555 L382.893799,60.0336914 L389.931641,60.0336914 L389.931641,58.0869141 L393.168457,58.0869141 L393.168457,55.8520508 L407.958496,55.8520508 L407.958496,54.0356445 L419.949463,54.0356445 L419.949463,50.6518555 L423.401855,50.6518555 L423.401855,43.6953125 L430.519263,43.6953125 L430.519263,36.0878906 L438.042031,36.0878906 L438.042031,46.5724828 L462.275548,46.5724828 L462.275548,41.438948 L468.16633,41.438948 L468.16633,46.5724828 L473.9375,46.5724828 L473.9375,36.0878906 L479.969727,36.0878906 L479.969727,32.9599609 L485.373535,32.9599609 L485.373535,31.4897461 L510.958984,31.4897461 L510.958984,21.958252 L536.974854,21.958252 L536.974854,18.0202637 L524.582206,18.0202637 L524.582206,11.1617714 L547.973345,11.1617714 L547.973345,15.5444336 L558.717085,15.5444336 L558.717085,11.1617714 L566.280897,11.1617714 L566.280897,5.62483103 L574.001067,5.62483103 L574.001067,20.7485882 L580.689275,20.7485882 L580.689275,18.0202637 L599.89209,18.0202637 L599.89209,16.8308105 L601.203613,16.8308105 L601.203613,15.1193848 L604.416748,15.1193848 L604.416748,13.0126953 L608.745605,13.0126953 L608.745605,11.9150391 L611.573865,11.9150391 L611.573865,0.087890625 Z M384.005859,60.0117188 L389.982422,60.0117188 L389.982422,65.9882812 L407.982422,65.9882812 L407.982422,54 L389.982422,54 L389.982422,47.9882812 L384.005859,47.6367188 L384.005859,24.0117188 L389.982422,24.0117188 L389.982422,18 L420.005859,18 L420.005859,65.9882812 L413.994141,65.9882812 L413.994141,72 L389.982422,72 L389.982422,65.9882812 L384.005859,65.9882812 L384.005859,60.0117188 Z M515.982422,0 L515.982422,6.01171875 L491.970703,6.01171875 L491.970703,24.0117188 L509.970703,24.0117188 L509.970703,29.9882812 L491.970703,29.9882812 L491.970703,54 L479.982422,54 L479.982422,0 L515.982422,0 Z M539.958984,24.0117188 L539.958984,47.9882812 L551.947266,47.9882812 L551.947266,42.0117188 L557.958984,42.0117188 L557.958984,24.0117188 L539.958984,24.0117188 Z M539.958984,18 L557.958984,18 L557.958984,24.0117188 L563.970703,24.0117188 L563.970703,54 L557.958984,54 L557.958984,47.9882812 L551.947266,47.9882812 L551.947266,54 L533.947266,54 L533.947266,47.9882812 L527.970703,47.9882812 L527.970703,29.9882812 L533.947266,29.9882812 L533.947266,24.0117188 L539.958984,24.0117188 L539.958984,18 Z M587.947266,18 L599.935547,18 L599.935547,54 L587.947266,54 L587.947266,18 Z M599.935547,0 L599.935547,11.9882812 L587.947266,11.9882812 L587.947266,0 L599.935547,0 Z M635.935547,11.9882812 L647.923828,11.9882812 L647.923828,18 L653.935547,18 L653.935547,24.0117188 L647.923828,24.0117188 L647.923828,47.9882812 L653.935547,47.9882812 L653.935547,54 L641.947266,54 L641.947266,47.9882812 L635.935547,47.9882812 L635.935547,24.0117188 L629.923828,24.0117188 L629.923828,18 L635.935547,18 L635.935547,11.9882812 Z M683.923828,0 L683.923828,18 L701.923828,18 L701.923828,24.0117188 L707.935547,24.0117188 L707.935547,54 L701.923828,54 L701.923828,24.0117188 L683.923828,24.0117188 L683.923828,54 L671.935547,54 L671.935547,0 L683.923828,0 Z" id="Reforging-Faith" fill="#FCF7DF"></path>
                <rect id="Noise" fill="#FCF7DF" fill-rule="nonzero" x="550" y="0" width="17" height="6"></rect>
                <rect id="Noise" fill="#FCF7DF" x="424.099609" y="6" width="12" height="12"></rect>
                <rect id="Noise" fill="#FCF7DF" x="446" y="24" width="10" height="9"></rect>
                <rect id="Noise" fill="#FCF7DF" fill-rule="nonzero" x="522" y="18" width="3" height="3"></rect>
                <rect id="Noise" fill="#FCF7DF" fill-rule="nonzero" x="635" y="33" width="8" height="3"></rect>
                <rect id="Noise" fill="#FCF7DF" fill-rule="nonzero" x="543" y="29" width="5" height="3"></rect>
            </g>
        </g>
    </g>
</svg>